<?xml version="1.0" encoding="UTF-8"?>
<svg version="1.1" xmlns="http://www.w3.org/2000/svg" width="128" height="128" viewBox="0 0 128 128">
<path d="M0 0 C14.30556239 10.91842742 24.32992886 26.00782829 27 44 C28.61075317 61.84612246 24.99800502 79.03952968 13.453125 93.23046875 C2.32691856 106.20008213 -12.73570694 115.62227727 -30.04492188 117.18457031 C-48.0635308 118.30169192 -64.86082184 114.06463986 -78.81933594 102.09008789 C-91.63227211 90.53793498 -100.24026081 75.18631488 -101.3203125 57.765625 C-101.99551729 39.67950363 -96.96686598 23.24451611 -84.6875 9.625 C-62.34364384 -14.04443627 -27.07548938 -18.20767654 0 0 Z " fill="#7BC256" transform="translate(101,11)"/>
<path d="M0 0 C14.30556239 10.91842742 24.32992886 26.00782829 27 44 C28.61075317 61.84612246 24.99800502 79.03952968 13.453125 93.23046875 C2.32691856 106.20008213 -12.73570694 115.62227727 -30.04492188 117.18457031 C-48.0635308 118.30169192 -64.86082184 114.06463986 -78.81933594 102.09008789 C-91.63227211 90.53793498 -100.24026081 75.18631488 -101.3203125 57.765625 C-101.99551729 39.67950363 -96.96686598 23.24451611 -84.6875 9.625 C-62.34364384 -14.04443627 -27.07548938 -18.20767654 0 0 Z M-78 17 C-83.12259683 23.15300424 -86.3382823 29.49420838 -89 37 C-89.35964844 37.73089844 -89.71929687 38.46179687 -90.08984375 39.21484375 C-91.40381445 43.23570689 -91.28945732 47.04779579 -91.25 51.25 C-91.25773437 52.05824219 -91.26546875 52.86648437 -91.2734375 53.69921875 C-91.22652462 68.35949352 -85.49832743 81.38044243 -75.5625 92.125 C-63.33694163 103.79819881 -49.31997891 107.5446887 -32.69921875 107.2421875 C-17.99152945 106.27927648 -5.51417955 99.7790783 4.5546875 89.09375 C8.73713176 83.80222308 11.4289623 78.23348455 14 72 C14.35964844 71.18144531 14.71929687 70.36289063 15.08984375 69.51953125 C19.66398509 57.2726367 17.9484568 41.93464903 12.78125 30.2421875 C5.95185397 16.62133654 -5.510024 5.98014719 -20 1 C-41.46367007 -5.39887949 -62.82649654 0.97201597 -78 17 Z " fill="#F7F8F7" transform="translate(101,11)"/>
<path d="M0 0 C5.14546922 2.57273461 10.11898765 5.41748415 15.125 8.25 C16.61773437 9.09111328 16.61773437 9.09111328 18.140625 9.94921875 C24.48696921 13.53664309 30.76934945 17.21520207 37 21 C35.67691876 24.96924372 34.10407848 25.36977261 30.49609375 27.3984375 C29.36236328 28.04296875 28.22863281 28.6875 27.06054688 29.3515625 C25.85307874 30.02642498 24.64539485 30.70090157 23.4375 31.375 C21.10115001 32.69230031 18.76750297 34.0143104 16.43359375 35.3359375 C15.32483887 35.96081055 14.21608398 36.58568359 13.07373047 37.22949219 C10.43120896 38.75161816 7.85147114 40.33064122 5.28515625 41.9765625 C2 44 2 44 0 44 C0 29.48 0 14.96 0 0 Z " fill="#F8FBF7" transform="translate(50,44)"/>
<path d="M0 0 C0.98871094 -0.01417969 1.97742188 -0.02835938 2.99609375 -0.04296875 C5.5625 0.1875 5.5625 0.1875 7.5625 2.1875 C7.02678571 5.72321429 7.02678571 5.72321429 5.5625 7.1875 C3.73134117 7.28601171 1.89630067 7.31722629 0.0625 7.3125 C-0.9378125 7.31507812 -1.938125 7.31765625 -2.96875 7.3203125 C-5.4375 7.1875 -5.4375 7.1875 -6.4375 6.1875 C-6.5625 3.6875 -6.5625 3.6875 -6.4375 1.1875 C-4.69900372 -0.55099628 -2.3588363 0.01533704 0 0 Z " fill="#9CCC87" transform="translate(19.4375,60.8125)"/>
<path d="M0 0 C0.89589844 -0.01417969 1.79179688 -0.02835938 2.71484375 -0.04296875 C5.0625 0.1875 5.0625 0.1875 7.0625 2.1875 C6.52678571 5.72321429 6.52678571 5.72321429 5.0625 7.1875 C3.42019636 7.3120486 1.77197724 7.36318524 0.125 7.375 C-0.77089844 7.38917969 -1.66679688 7.40335937 -2.58984375 7.41796875 C-4.9375 7.1875 -4.9375 7.1875 -6.9375 5.1875 C-6.17545909 0.15803001 -4.84972664 0.03479 0 0 Z " fill="#9DCD88" transform="translate(107.9375,60.8125)"/>
<path d="M0 0 C1.65 0.33 3.3 0.66 5 1 C5 4.96 5 8.92 5 13 C3.35 13.33 1.7 13.66 0 14 C-1 13 -1 13 -1.1328125 10.3125 C-1.13023438 9.219375 -1.12765625 8.12625 -1.125 7 C-1.12757812 5.906875 -1.13015625 4.81375 -1.1328125 3.6875 C-1 1 -1 1 0 0 Z " fill="#A3D48B" transform="translate(62,101)"/>
<path d="M0 0 C1.32 0.33 2.64 0.66 4 1 C4 5.29 4 9.58 4 14 C2.35 14 0.7 14 -1 14 C-2.73849628 12.26150372 -2.17216296 9.9213363 -2.1875 7.5625 C-2.20167969 6.57378906 -2.21585937 5.58507812 -2.23046875 4.56640625 C-2 2 -2 2 0 0 Z " fill="#A2D48A" transform="translate(67,13)"/>
<path d="M0 0 C1.32 0.33 2.64 0.66 4 1 C4 4.96 4 8.92 4 13 C2.35 13.33 0.7 13.66 -1 14 C-2.73849628 12.26150372 -2.17216296 9.9213363 -2.1875 7.5625 C-2.20167969 6.57378906 -2.21585938 5.58507812 -2.23046875 4.56640625 C-2 2 -2 2 0 0 Z " fill="#A3D48B" transform="translate(58,13)"/>
<path d="M0 0 C0.66 0.66 1.32 1.32 2 2 C1.45585449 2.31227539 0.91170898 2.62455078 0.35107422 2.94628906 C-2.14218032 4.37873086 -4.63359801 5.81433873 -7.125 7.25 C-7.9809375 7.74113281 -8.836875 8.23226562 -9.71875 8.73828125 C-13.38675666 10.85443894 -16.98927658 12.94954507 -20.4296875 15.421875 C-21.70199219 16.20304687 -21.70199219 16.20304687 -23 17 C-23.99 16.67 -24.98 16.34 -26 16 C-21.65599206 12.21877851 -16.91068258 9.59895671 -11.875 6.875 C-10.26763365 5.99848703 -8.66083887 5.12092486 -7.0546875 4.2421875 C-6.34812012 3.8591748 -5.64155273 3.47616211 -4.91357422 3.08154297 C-3.23049211 2.13027304 -1.6086095 1.07240633 0 0 Z " fill="#90DE61" transform="translate(79,71)"/>
<path d="M0 0 C1.216875 -0.01417969 2.43375 -0.02835938 3.6875 -0.04296875 C7 0.1875 7 0.1875 11 2.1875 C7.7 2.8475 4.4 3.5075 1 4.1875 C1 3.5275 1 2.8675 1 2.1875 C-0.85625 2.496875 -0.85625 2.496875 -2.75 2.8125 C-6.11909835 3.24857124 -8.12841921 3.22153639 -11 1.1875 C-7.32872046 0.04022514 -3.82958514 0.02028382 0 0 Z " fill="#71B550" transform="translate(64,9.8125)"/>
<path d="M0 0 C3.33717549 1.3809002 5.22301036 2.8201238 7 6 C6.6875 8.25 6.6875 8.25 6 10 C4.1875 9.8125 4.1875 9.8125 2 9 C0.1875 6.6875 0.1875 6.6875 -1 4 C-0.6875 1.6875 -0.6875 1.6875 0 0 Z " fill="#A0D18A" transform="translate(37,20)"/>
<path d="M0 0 C0.99 0 1.98 0 3 0 C6.22265625 5.17578125 6.22265625 5.17578125 7 7 C6.67 7.99 6.34 8.98 6 10 C4.1875 9.8125 4.1875 9.8125 2 9 C0.1875 6.6875 0.1875 6.6875 -1 4 C-0.6875 1.6875 -0.6875 1.6875 0 0 Z " fill="#A1D18A" transform="translate(85,98)"/>
<path d="M0 0 C1.32 0.33 2.64 0.66 4 1 C3.42647107 4.87132028 1.51295648 7.08172796 -1 10 C-1.99 9.67 -2.98 9.34 -4 9 C-3.46930939 5.17902761 -2.50298434 2.93828597 0 0 Z " fill="#A1D18A" transform="translate(90,22)"/>
<path d="M0 0 C1.32 0 2.64 0 4 0 C3.5020163 3.73487777 3.12508244 5.81237635 1 9 C-0.65 8.67 -2.3 8.34 -4 8 C-2.87548273 5.0280615 -1.77706209 2.66559313 0 0 Z " fill="#A1D18A" transform="translate(38,98)"/>
<path d="M0 0 C0.53625 0.226875 1.0725 0.45375 1.625 0.6875 C0.625 3.6875 0.625 3.6875 -2.25 5.375 C-5.375 6.6875 -5.375 6.6875 -8.375 6.6875 C-8.375 5.3675 -8.375 4.0475 -8.375 2.6875 C-2.95961538 -0.38942308 -2.95961538 -0.38942308 0 0 Z " fill="#9ECE89" transform="translate(108.375,40.3125)"/>
<path d="M0 0 C4.83256305 0.41421969 6.82679218 2.46413986 10 6 C6.75691762 7.01925446 5.37302767 7.15750057 2.1875 5.8125 C1.465625 5.214375 0.74375 4.61625 0 4 C0 2.68 0 1.36 0 0 Z " fill="#9FCE89" transform="translate(99,83)"/>
<path d="M0 0 C0.556875 0.226875 1.11375 0.45375 1.6875 0.6875 C0.6875 3.6875 0.6875 3.6875 -2.1875 5.375 C-5.3125 6.6875 -5.3125 6.6875 -8.3125 6.6875 C-8.125 4.875 -8.125 4.875 -7.3125 2.6875 C-3.3125 -0.44763514 -3.3125 -0.44763514 0 0 Z " fill="#9ECE8A" transform="translate(26.3125,82.3125)"/>
<path d="M0 0 C3.95820859 0.56545837 6.6659053 1.80902348 10 4 C9.67 4.99 9.34 5.98 9 7 C5.2241456 6.47557578 2.77627845 5.67345333 0 3 C0 2.01 0 1.02 0 0 Z " fill="#9FCE8A" transform="translate(19,38)"/>
<path d="M0 0 C0 0.66 0 1.32 0 2 C-4.455 3.485 -4.455 3.485 -9 5 C-9 5.66 -9 6.32 -9 7 C-11.64 7.66 -14.28 8.32 -17 9 C-12.30144152 3.71412171 -7.26218925 0 0 0 Z " fill="#6EB14B" transform="translate(48,13)"/>
<path d="M0 0 C2.98835487 2.56144704 4.25774762 5.51549525 6 9 C7.11375 10.3303125 7.11375 10.3303125 8.25 11.6875 C8.8275 12.450625 9.405 13.21375 10 14 C9.67 14.99 9.34 15.98 9 17 C0 5.52427184 0 5.52427184 0 0 Z " fill="#6BAB4C" transform="translate(14,83)"/>
<path d="M0 0 C3.32851213 2.98418329 5.3205729 5.84562769 7 10 C6.67 10.99 6.34 11.98 6 13 C5.34 12.34 4.68 11.68 4 11 C2.34106818 9.65705519 0.67523395 8.32255312 -1 7 C-0.01 7 0.98 7 2 7 C2 5.68 2 4.36 2 3 C1.34 3 0.68 3 0 3 C0 2.01 0 1.02 0 0 Z " fill="#6BAB4D" transform="translate(107,32)"/>
<path d="M0 0 C1 3 1 3 0.07421875 5.2265625 C-0.38339844 6.01804687 -0.84101562 6.80953125 -1.3125 7.625 C-1.98732422 8.81996094 -1.98732422 8.81996094 -2.67578125 10.0390625 C-4 12 -4 12 -6 13 C-5.67 10.69 -5.34 8.38 -5 6 C-4.01 5.67 -3.02 5.34 -2 5 C-0.78130071 2.49552484 -0.78130071 2.49552484 0 0 Z " fill="#6BAB4C" transform="translate(113,83)"/>
<path d="M0 0 C0 2.33333333 0 4.66666667 0 7 C-1.30144802 8.04115841 -2.63838689 9.03886134 -4 10 C-5.2516467 12.08334635 -5.2516467 12.08334635 -6 14 C-7 11 -7 11 -5.8203125 8.5546875 C-4.98113281 7.22824219 -4.98113281 7.22824219 -4.125 5.875 C-3.57070313 4.98554687 -3.01640625 4.09609375 -2.4453125 3.1796875 C-1 1 -1 1 0 0 Z " fill="#66A846" transform="translate(21,31)"/>
<path d="M0 0 C0.98484375 0.01804687 1.9696875 0.03609375 2.984375 0.0546875 C4.10585937 0.08949219 4.10585937 0.08949219 5.25 0.125 C5.25 0.455 5.25 0.785 5.25 1.125 C3.27 1.455 1.29 1.785 -0.75 2.125 C-0.75 2.455 -0.75 2.785 -0.75 3.125 C-3.72 2.795 -6.69 2.465 -9.75 2.125 C-5.76219998 0.13109999 -4.27852428 -0.10186963 0 0 Z " fill="#68B140" transform="translate(62.75,9.875)"/>
<path d="M0 0 C4.43090471 1.20842856 6.98112756 2.51668565 10 6 C9.01 6.33 8.02 6.66 7 7 C4.4375 5.125 4.4375 5.125 2 3 C1.34 2.67 0.68 2.34 0 2 C0 1.34 0 0.68 0 0 Z " fill="#6DB04B" transform="translate(86,15)"/>
<path d="M0 0 C0.33 0 0.66 0 1 0 C1 3.3 1 6.6 1 10 C0.67 9.34 0.34 8.68 0 8 C-0.66 8 -1.32 8 -2 8 C-2.20086443 4.28400809 -2.1519437 3.22791555 0 0 Z " fill="#62A542" transform="translate(117,59)"/>
<path d="M0 0 C4.75 0.875 4.75 0.875 7 2 C7 2.66 7 3.32 7 4 C8.32 4.33 9.64 4.66 11 5 C10.67 5.66 10.34 6.32 10 7 C8.33073546 6.02526874 6.66464358 5.04510211 5 4.0625 C4.071875 3.51722656 3.14375 2.97195312 2.1875 2.41015625 C1.465625 1.94480469 0.74375 1.47945312 0 1 C0 0.67 0 0.34 0 0 Z " fill="#91DF62" transform="translate(72,56)"/>
<path d="M0 0 C2.97 0.495 2.97 0.495 6 1 C4.125 1.625 4.125 1.625 2 2 C1.34 1.34 0.68 0.68 0 0 Z " fill="#F7F7F7" transform="translate(43,126)"/>
<path d="M0 0 C0.99 0.33 1.98 0.66 3 1 C1.02 1.33 -0.96 1.66 -3 2 C-2.01 1.34 -1.02 0.68 0 0 Z " fill="#F7F7F7" transform="translate(82,126)"/>
<path d="M0 0 C0.625 1.875 0.625 1.875 1 4 C0.34 4.66 -0.32 5.32 -1 6 C-0.67 4.02 -0.34 2.04 0 0 Z " fill="#ECECEC" transform="translate(126,82)"/>
<path d="M0 0 C0.99 1.485 0.99 1.485 2 3 C1.67 3.99 1.34 4.98 1 6 C0.67 4.02 0.34 2.04 0 0 Z " fill="#F7F7F7" transform="translate(0,79)"/>
<path d="M0 0 C0.33 0.99 0.66 1.98 1 3 C0.34 3.99 -0.32 4.98 -1 6 C-0.67 4.02 -0.34 2.04 0 0 Z " fill="#FFFFFF" transform="translate(1,43)"/>
<path d="M0 0 C0.66 0.66 1.32 1.32 2 2 C1.625 4.125 1.625 4.125 1 6 C0.67 4.02 0.34 2.04 0 0 Z " fill="#FFFFFF" transform="translate(125,40)"/>
<path d="M0 0 C2.97 0.495 2.97 0.495 6 1 C5.01 1.33 4.02 1.66 3 2 C2.01 1.34 1.02 0.68 0 0 Z " fill="#FFFFFF" transform="translate(82,1)"/>
<path d="M0 0 C2.125 0.375 2.125 0.375 4 1 C2.02 1.33 0.04 1.66 -2 2 C-1.34 1.34 -0.68 0.68 0 0 Z " fill="#FFFFFF" transform="translate(42,1)"/>
<path d="M0 0 C0.66 0.33 1.32 0.66 2 1 C1.01 1 0.02 1 -1 1 C-0.67 0.67 -0.34 0.34 0 0 Z " fill="#DFDFDF" transform="translate(103,115)"/>
<path d="M0 0 C0.99 0.33 1.98 0.66 3 1 C2.01 1 1.02 1 0 1 C0 0.67 0 0.34 0 0 Z " fill="#FFFFFF" transform="translate(23,115)"/>
<path d="M0 0 C0.99 0.495 0.99 0.495 2 1 C1.67 1.66 1.34 2.32 1 3 C0.67 2.01 0.34 1.02 0 0 Z " fill="#FFFFFF" transform="translate(11,102)"/>
<path d="M0 0 C0 3 0 3 0 3 Z " fill="#FFFFFF" transform="translate(12,23)"/>
<path d="M0 0 C3 1 3 1 3 1 Z " fill="#EEEEEE" transform="translate(85,125)"/>
<path d="M0 0 C3 1 3 1 3 1 Z " fill="#EEEEEE" transform="translate(40,125)"/>
<path d="" fill="#EEEEEE" transform="translate(0,0)"/>
<path d="" fill="#FFFFFF" transform="translate(0,0)"/>
<path d="" fill="#FFFFFF" transform="translate(0,0)"/>
<path d="" fill="#EEEEEE" transform="translate(0,0)"/>
<path d="M0 0 C3 1 3 1 3 1 Z " fill="#FFFFFF" transform="translate(79,0)"/>
<path d="M0 0 C3 1 3 1 3 1 Z " fill="#FFFFFF" transform="translate(46,0)"/>
<path d="M0 0 C2 1 2 1 2 1 Z " fill="#FFFFFF" transform="translate(88,124)"/>
<path d="M0 0 C2 1 2 1 2 1 Z " fill="#DFDFDF" transform="translate(38,124)"/>
<path d="M0 0 C2 1 2 1 2 1 Z " fill="#FFFFFF" transform="translate(90,123)"/>
<path d="M0 0 C2 1 2 1 2 1 Z " fill="#D4D4D4" transform="translate(36,123)"/>
<path d="M0 0 C2 1 2 1 2 1 Z " fill="#FFFFFF" transform="translate(92,122)"/>
<path d="M0 0 C2 1 2 1 2 1 Z " fill="#BFBFBF" transform="translate(34,122)"/>
<path d="M0 0 C2 1 2 1 2 1 Z " fill="#D4D4D4" transform="translate(94,121)"/>
<path d="M0 0 C2 1 2 1 2 1 Z " fill="#FFFFFF" transform="translate(32,121)"/>
<path d="M0 0 C2 1 2 1 2 1 Z " fill="#E5E5E5" transform="translate(96,120)"/>
<path d="M0 0 C2 1 2 1 2 1 Z " fill="#E5E5E5" transform="translate(30,120)"/>
<path d="M0 0 C2 1 2 1 2 1 Z " fill="#FFFFFF" transform="translate(99,118)"/>
<path d="M0 0 C2 1 2 1 2 1 Z " fill="#D4D4D4" transform="translate(27,118)"/>
<path d="" fill="#FFFFFF" transform="translate(0,0)"/>
<path d="" fill="#DFDFDF" transform="translate(0,0)"/>
<path d="" fill="#FFFFFF" transform="translate(0,0)"/>
<path d="" fill="#FFFFFF" transform="translate(0,0)"/>
<path d="" fill="#E5E5E5" transform="translate(0,0)"/>
<path d="" fill="#FFFFFF" transform="translate(0,0)"/>
<path d="" fill="#FFFFFF" transform="translate(0,0)"/>
<path d="" fill="#DFDFDF" transform="translate(0,0)"/>
<path d="" fill="#BFBFBF" transform="translate(0,0)"/>
<path d="" fill="#FFFFFF" transform="translate(0,0)"/>
<path d="" fill="#D4D4D4" transform="translate(0,0)"/>
<path d="" fill="#E5E5E5" transform="translate(0,0)"/>
<path d="" fill="#DFDFDF" transform="translate(0,0)"/>
<path d="" fill="#FFFFFF" transform="translate(0,0)"/>
<path d="" fill="#FFFFFF" transform="translate(0,0)"/>
<path d="" fill="#FFFFFF" transform="translate(0,0)"/>
<path d="" fill="#FFFFFF" transform="translate(0,0)"/>
<path d="" fill="#FFFFFF" transform="translate(0,0)"/>
<path d="" fill="#FFFFFF" transform="translate(0,0)"/>
<path d="" fill="#FFFFFF" transform="translate(0,0)"/>
<path d="" fill="#FFFFFF" transform="translate(0,0)"/>
<path d="" fill="#FFFFFF" transform="translate(0,0)"/>
<path d="" fill="#FFFFFF" transform="translate(0,0)"/>
<path d="" fill="#FFFFFF" transform="translate(0,0)"/>
<path d="" fill="#FFFFFF" transform="translate(0,0)"/>
<path d="" fill="#FFFFFF" transform="translate(0,0)"/>
<path d="M0 0 C2 1 2 1 2 1 Z " fill="#FFFFFF" transform="translate(103,12)"/>
<path d="M0 0 C2 1 2 1 2 1 Z " fill="#FFFFFF" transform="translate(23,12)"/>
<path d="M0 0 C2 1 2 1 2 1 Z " fill="#FFFFFF" transform="translate(99,9)"/>
<path d="M0 0 C2 1 2 1 2 1 Z " fill="#FFFFFF" transform="translate(27,9)"/>
<path d="M0 0 C2 1 2 1 2 1 Z " fill="#FFFFFF" transform="translate(96,7)"/>
<path d="M0 0 C2 1 2 1 2 1 Z " fill="#FFFFFF" transform="translate(30,7)"/>
<path d="M0 0 C2 1 2 1 2 1 Z " fill="#FFFFFF" transform="translate(94,6)"/>
<path d="M0 0 C2 1 2 1 2 1 Z " fill="#FFFFFF" transform="translate(32,6)"/>
<path d="M0 0 C2 1 2 1 2 1 Z " fill="#FFFFFF" transform="translate(92,5)"/>
<path d="M0 0 C2 1 2 1 2 1 Z " fill="#FFFFFF" transform="translate(34,5)"/>
<path d="M0 0 C2 1 2 1 2 1 Z " fill="#FFFFFF" transform="translate(90,4)"/>
<path d="M0 0 C2 1 2 1 2 1 Z " fill="#FFFFFF" transform="translate(36,4)"/>
<path d="M0 0 C2 1 2 1 2 1 Z " fill="#FFFFFF" transform="translate(88,3)"/>
<path d="M0 0 C2 1 2 1 2 1 Z " fill="#FFFFFF" transform="translate(38,3)"/>
<path d="" fill="#FFFFFF" transform="translate(0,0)"/>
<path d="" fill="#FFFFFF" transform="translate(0,0)"/>
<path d="" fill="#CCCCCC" transform="translate(0,0)"/>
<path d="" fill="#FFFFFF" transform="translate(0,0)"/>
<path d="" fill="#FFFFFF" transform="translate(0,0)"/>
<path d="" fill="#CCCCCC" transform="translate(0,0)"/>
<path d="" fill="#FFFFFF" transform="translate(0,0)"/>
<path d="" fill="#FFFFFF" transform="translate(0,0)"/>
<path d="" fill="#FFFFFF" transform="translate(0,0)"/>
<path d="" fill="#D5D5D5" transform="translate(0,0)"/>
<path d="" fill="#FFFFFF" transform="translate(0,0)"/>
<path d="" fill="#FFFFFF" transform="translate(0,0)"/>
<path d="" fill="#FFFFFF" transform="translate(0,0)"/>
<path d="" fill="#FFFFFF" transform="translate(0,0)"/>
<path d="" fill="#FFFFFF" transform="translate(0,0)"/>
<path d="" fill="#FFFFFF" transform="translate(0,0)"/>
<path d="" fill="#FFFFFF" transform="translate(0,0)"/>
<path d="" fill="#FFFFFF" transform="translate(0,0)"/>
<path d="" fill="#FFFFFF" transform="translate(0,0)"/>
<path d="" fill="#D5D5D5" transform="translate(0,0)"/>
<path d="" fill="#FFFFFF" transform="translate(0,0)"/>
<path d="" fill="#FFFFFF" transform="translate(0,0)"/>
<path d="" fill="#FFFFFF" transform="translate(0,0)"/>
<path d="" fill="#CCCCCC" transform="translate(0,0)"/>
<path d="" fill="#FFFFFF" transform="translate(0,0)"/>
<path d="" fill="#FFFFFF" transform="translate(0,0)"/>
<path d="" fill="#FFFFFF" transform="translate(0,0)"/>
<path d="" fill="#FFFFFF" transform="translate(0,0)"/>
<path d="" fill="#FFFFFF" transform="translate(0,0)"/>
<path d="" fill="#FFFFFF" transform="translate(0,0)"/>
<path d="" fill="#FFFFFF" transform="translate(0,0)"/>
<path d="" fill="#CCCCCC" transform="translate(0,0)"/>
<path d="" fill="#FFFFFF" transform="translate(0,0)"/>
<path d="" fill="#FFFFFF" transform="translate(0,0)"/>
<path d="" fill="#FFFFFF" transform="translate(0,0)"/>
<path d="" fill="#FFFFFF" transform="translate(0,0)"/>
<path d="" fill="#FFFFFF" transform="translate(0,0)"/>
<path d="" fill="#D5D5D5" transform="translate(0,0)"/>
<path d="" fill="#FFFFFF" transform="translate(0,0)"/>
<path d="" fill="#FFFFFF" transform="translate(0,0)"/>
<path d="" fill="#FFFFFF" transform="translate(0,0)"/>
<path d="" fill="#FFFFFF" transform="translate(0,0)"/>
<path d="" fill="#FFFFFF" transform="translate(0,0)"/>
<path d="" fill="#FFFFFF" transform="translate(0,0)"/>
<path d="" fill="#FFFFFF" transform="translate(0,0)"/>
<path d="" fill="#FFFFFF" transform="translate(0,0)"/>
<path d="" fill="#FFFFFF" transform="translate(0,0)"/>
<path d="" fill="#FFFFFF" transform="translate(0,0)"/>
<path d="" fill="#FFFFFF" transform="translate(0,0)"/>
<path d="" fill="#FFFFFF" transform="translate(0,0)"/>
<path d="" fill="#FFFFFF" transform="translate(0,0)"/>
<path d="" fill="#FFFFFF" transform="translate(0,0)"/>
<path d="" fill="#FFFFFF" transform="translate(0,0)"/>
<path d="" fill="#FFFFFF" transform="translate(0,0)"/>
<path d="" fill="#FFFFFF" transform="translate(0,0)"/>
<path d="" fill="#FFFFFF" transform="translate(0,0)"/>
<path d="" fill="#FFFFFF" transform="translate(0,0)"/>
<path d="" fill="#FFFFFF" transform="translate(0,0)"/>
<path d="" fill="#FFFFFF" transform="translate(0,0)"/>
<path d="" fill="#FFFFFF" transform="translate(0,0)"/>
</svg>
